<svg xmlns="http://www.w3.org/2000/svg" width="1280" height="320" viewBox="0 0 1280 320" fill="none">
<rect width="1280" height="320" fill="#30FFC0"/>
<path transform="translate(788.457,-160.000) scale(1.42857)" d="M 315.5,1.1999999999999886 C 313.40000000000003,1.6999999999999886 281.7,32.799999999999955 206.5,107.89999999999998 C 146.5,167.89999999999998 99.30000000000001,214.39999999999998 97.7,215.0 C 95.9,215.6 79.4,216.0 52.300000000000004,216.0 C 11.4,216.0 9.600000000000001,216.1 6.5,218.0 C -0.4,222.29999999999998 0.0,215.79999999999998 0.0,328.7 C 0.0,428.5 0.0,430.6 2.0,433.8 C 6.0,440.3 12.9,442.5 19.5,439.4 C 21.3,438.6 70.9,389.4 130.6,329.3 C 223.9,235.5 239.20000000000002,220.39999999999998 243.8,218.39999999999998 C 249.0,216.0 249.5,216.0 281.8,216.0 C 312.40000000000003,216.0 314.70000000000005,216.1 317.70000000000005,218.0 C 319.40000000000003,219.0 321.5,220.89999999999998 322.20000000000005,222.2 C 323.20000000000005,224.0 323.6,245.1 324.0,328.0 L 324.5,431.5 L 326.8,434.8 C 331.0,440.6 338.1,442.6 343.8,439.6 C 345.3,438.8 395.8,388.8 456.0,328.5 C 516.2,268.2 566.7,218.2 568.2,217.39999999999998 C 570.4,216.29999999999998 577.3000000000001,216.0 605.2,216.0 C 637.4000000000001,216.0 639.7,216.1 642.7,218.0 C 644.4000000000001,219.0 646.5,220.89999999999998 647.2,222.2 C 648.2,224.0 648.6,245.7 649.0,331.7 C 649.5,438.1 649.5,438.9 651.6,441.7 C 654.8000000000001,446.1 659.7,448.2 665.0,447.5 C 669.4000000000001,447.0 670.6,445.9 707.3000000000001,409.2 C 728.1,388.5 745.8000000000001,370.3 746.6,368.8 C 747.8000000000001,366.5 748.0,354.9 748.0,295.79999999999995 C 748.0,228.0 747.9000000000001,225.39999999999998 746.0,222.29999999999998 C 742.5,216.5 742.6,216.5 703.3000000000001,216.0 C 668.7,215.5 667.0,215.39999999999998 664.3000000000001,213.39999999999998 C 662.8000000000001,212.29999999999998 660.7,209.79999999999998 659.8000000000001,207.89999999999998 C 658.1,204.7 658.0,197.89999999999998 658.0,107.79999999999995 C 658.0,-0.7000000000000455 658.4000000000001,5.7999999999999545 650.8000000000001,1.8999999999999773 C 646.6,-0.20000000000004547 643.4000000000001,-0.5 639.3000000000001,1.099999999999966 C 637.7,1.6999999999999886 590.2,48.599999999999966 529.9,109.09999999999997 L 423.3,216.1 L 382.70000000000005,215.79999999999998 C 343.5,215.5 342.1,215.39999999999998 339.3,213.39999999999998 C 337.8,212.29999999999998 335.70000000000005,209.79999999999998 334.8,207.89999999999998 C 333.1,204.7 333.0,197.89999999999998 333.0,107.69999999999999 C 333.0,4.099999999999966 333.20000000000005,8.199999999999989 328.1,3.599999999999966 C 325.6,1.2999999999999545 319.5,0.0999999999999659 315.5,1.1999999999999886" fill="#08110E" opacity="0.06"/>
<path transform="translate(127.488,54.409) scale(0.24615)" d="M 315.5,1.1999999999999886 C 313.40000000000003,1.6999999999999886 281.7,32.799999999999955 206.5,107.89999999999998 C 146.5,167.89999999999998 99.30000000000001,214.39999999999998 97.7,215.0 C 95.9,215.6 79.4,216.0 52.300000000000004,216.0 C 11.4,216.0 9.600000000000001,216.1 6.5,218.0 C -0.4,222.29999999999998 0.0,215.79999999999998 0.0,328.7 C 0.0,428.5 0.0,430.6 2.0,433.8 C 6.0,440.3 12.9,442.5 19.5,439.4 C 21.3,438.6 70.9,389.4 130.6,329.3 C 223.9,235.5 239.20000000000002,220.39999999999998 243.8,218.39999999999998 C 249.0,216.0 249.5,216.0 281.8,216.0 C 312.40000000000003,216.0 314.70000000000005,216.1 317.70000000000005,218.0 C 319.40000000000003,219.0 321.5,220.89999999999998 322.20000000000005,222.2 C 323.20000000000005,224.0 323.6,245.1 324.0,328.0 L 324.5,431.5 L 326.8,434.8 C 331.0,440.6 338.1,442.6 343.8,439.6 C 345.3,438.8 395.8,388.8 456.0,328.5 C 516.2,268.2 566.7,218.2 568.2,217.39999999999998 C 570.4,216.29999999999998 577.3000000000001,216.0 605.2,216.0 C 637.4000000000001,216.0 639.7,216.1 642.7,218.0 C 644.4000000000001,219.0 646.5,220.89999999999998 647.2,222.2 C 648.2,224.0 648.6,245.7 649.0,331.7 C 649.5,438.1 649.5,438.9 651.6,441.7 C 654.8000000000001,446.1 659.7,448.2 665.0,447.5 C 669.4000000000001,447.0 670.6,445.9 707.3000000000001,409.2 C 728.1,388.5 745.8000000000001,370.3 746.6,368.8 C 747.8000000000001,366.5 748.0,354.9 748.0,295.79999999999995 C 748.0,228.0 747.9000000000001,225.39999999999998 746.0,222.29999999999998 C 742.5,216.5 742.6,216.5 703.3000000000001,216.0 C 668.7,215.5 667.0,215.39999999999998 664.3000000000001,213.39999999999998 C 662.8000000000001,212.29999999999998 660.7,209.79999999999998 659.8000000000001,207.89999999999998 C 658.1,204.7 658.0,197.89999999999998 658.0,107.79999999999995 C 658.0,-0.7000000000000455 658.4000000000001,5.7999999999999545 650.8000000000001,1.8999999999999773 C 646.6,-0.20000000000004547 643.4000000000001,-0.5 639.3000000000001,1.099999999999966 C 637.7,1.6999999999999886 590.2,48.599999999999966 529.9,109.09999999999997 L 423.3,216.1 L 382.70000000000005,215.79999999999998 C 343.5,215.5 342.1,215.39999999999998 339.3,213.39999999999998 C 337.8,212.29999999999998 335.70000000000005,209.79999999999998 334.8,207.89999999999998 C 333.1,204.7 333.0,197.89999999999998 333.0,107.69999999999999 C 333.0,4.099999999999966 333.20000000000005,8.199999999999989 328.1,3.599999999999966 C 325.6,1.2999999999999545 319.5,0.0999999999999659 315.5,1.1999999999999886" fill="#08110E"/>
<g transform="translate(344.70,150.90) scale(0.122881,-0.122881)" fill="#08110E">
<path transform="translate(0.00,0)" d="M66 0V700H311L432 90H450L571 700H816V0H688V603H670L550 0H332L212 603H194V0Z"/>
<path transform="translate(882.00,0)" d="M296 -14Q222 -14 165.5 17.5Q109 49 77.5 106.5Q46 164 46 242V254Q46 332 77.0 389.5Q108 447 164.0 478.5Q220 510 294 510Q367 510 421.0 477.5Q475 445 505.0 387.5Q535 330 535 254V211H174Q176 160 212.0 128.0Q248 96 300 96Q353 96 378.0 119.0Q403 142 416 170L519 116Q505 90 478.5 59.5Q452 29 408.0 7.5Q364 -14 296 -14ZM175 305H407Q403 348 372.5 374.0Q342 400 293 400Q242 400 212.0 374.0Q182 348 175 305Z"/>
<path transform="translate(1459.00,0)" d="M260 0Q211 0 180.5 30.5Q150 61 150 112V392H26V496H150V650H276V496H412V392H276V134Q276 104 304 104H400V0Z"/>
<path transform="translate(1915.00,0)" d="M224 -14Q171 -14 129.0 4.5Q87 23 62.5 58.5Q38 94 38 145Q38 196 62.5 230.5Q87 265 130.5 282.5Q174 300 230 300H366V328Q366 363 344.0 385.5Q322 408 274 408Q227 408 204.0 386.5Q181 365 174 331L58 370Q70 408 96.5 439.5Q123 471 167.5 490.5Q212 510 276 510Q374 510 431.0 461.0Q488 412 488 319V134Q488 104 516 104H556V0H472Q435 0 411.0 18.0Q387 36 387 66V67H368Q364 55 350.0 35.5Q336 16 306.0 1.0Q276 -14 224 -14ZM246 88Q299 88 332.5 117.5Q366 147 366 196V206H239Q204 206 184.0 191.0Q164 176 164 149Q164 122 185.0 105.0Q206 88 246 88Z"/>
<path transform="translate(2493.00,0)" d="M46 246V262Q46 340 77.0 395.5Q108 451 159.5 480.5Q211 510 272 510Q340 510 375.0 486.0Q410 462 426 436H444V496H568V-88Q568 -139 538.0 -169.5Q508 -200 458 -200H126V-90H414Q442 -90 442 -60V69H424Q414 53 396.0 36.5Q378 20 348.0 9.0Q318 -2 272 -2Q211 -2 159.5 27.5Q108 57 77.0 112.5Q46 168 46 246ZM308 108Q366 108 405.0 145.0Q444 182 444 249V259Q444 327 405.5 363.5Q367 400 308 400Q250 400 211.0 363.5Q172 327 172 259V249Q172 182 211.0 145.0Q250 108 308 108Z"/>
<path transform="translate(3131.00,0)" d="M70 0V496H194V440H212Q223 470 248.5 484.0Q274 498 308 498H368V386H306Q258 386 227.0 360.5Q196 335 196 282V0Z"/>
<path transform="translate(3527.00,0)" d="M224 -14Q171 -14 129.0 4.5Q87 23 62.5 58.5Q38 94 38 145Q38 196 62.5 230.5Q87 265 130.5 282.5Q174 300 230 300H366V328Q366 363 344.0 385.5Q322 408 274 408Q227 408 204.0 386.5Q181 365 174 331L58 370Q70 408 96.5 439.5Q123 471 167.5 490.5Q212 510 276 510Q374 510 431.0 461.0Q488 412 488 319V134Q488 104 516 104H556V0H472Q435 0 411.0 18.0Q387 36 387 66V67H368Q364 55 350.0 35.5Q336 16 306.0 1.0Q276 -14 224 -14ZM246 88Q299 88 332.5 117.5Q366 147 366 196V206H239Q204 206 184.0 191.0Q164 176 164 149Q164 122 185.0 105.0Q206 88 246 88Z"/>
<path transform="translate(4105.00,0)" d="M70 -200V496H194V436H212Q229 465 265.0 487.5Q301 510 368 510Q428 510 479.0 480.5Q530 451 561.0 394.0Q592 337 592 256V240Q592 159 561.0 102.0Q530 45 479.0 15.5Q428 -14 368 -14Q323 -14 292.5 -3.5Q262 7 243.5 23.5Q225 40 214 57H196V-200ZM330 96Q389 96 427.5 133.5Q466 171 466 243V253Q466 325 427.0 362.5Q388 400 330 400Q272 400 233.0 362.5Q194 325 194 253V243Q194 171 233.0 133.5Q272 96 330 96Z"/>
<path transform="translate(4743.00,0)" d="M70 0V700H196V435H214Q222 451 239.0 467.0Q256 483 284.5 493.5Q313 504 357 504Q415 504 458.5 477.5Q502 451 526.0 404.5Q550 358 550 296V0H424V286Q424 342 396.5 370.0Q369 398 318 398Q260 398 228.0 359.5Q196 321 196 252V0Z"/>
<path transform="translate(5359.00,0)" d="M296 -14Q222 -14 165.5 17.5Q109 49 77.5 106.5Q46 164 46 242V254Q46 332 77.0 389.5Q108 447 164.0 478.5Q220 510 294 510Q367 510 421.0 477.5Q475 445 505.0 387.5Q535 330 535 254V211H174Q176 160 212.0 128.0Q248 96 300 96Q353 96 378.0 119.0Q403 142 416 170L519 116Q505 90 478.5 59.5Q452 29 408.0 7.5Q364 -14 296 -14ZM175 305H407Q403 348 372.5 374.0Q342 400 293 400Q242 400 212.0 374.0Q182 348 175 305Z"/>
<path transform="translate(5936.00,0)" d="M270 -14Q211 -14 159.5 15.5Q108 45 77.0 102.0Q46 159 46 240V256Q46 337 77.0 394.0Q108 451 159.0 480.5Q210 510 270 510Q315 510 345.5 499.5Q376 489 395.0 473.0Q414 457 424 439H442V700H568V0H444V60H426Q409 32 373.5 9.0Q338 -14 270 -14ZM308 96Q366 96 405.0 133.5Q444 171 444 243V253Q444 325 405.5 362.5Q367 400 308 400Q250 400 211.0 362.5Q172 325 172 253V243Q172 171 211.0 133.5Q250 96 308 96Z"/>
</g>
<rect x="168.5" y="202.2" width="943.0" height="2.0" rx="1.0" fill="#0B3D30" opacity="0.6"/>
<g transform="translate(175.84,265.59) scale(0.037022,-0.037022)" fill="#0B3D30">
<path transform="translate(0.00,0)" d="M47 0V96H141V604H47V700H402Q465 700 512.0 678.5Q559 657 585.5 617.5Q612 578 612 524V514Q612 466 594.0 435.0Q576 404 550.5 387.0Q525 370 502 363V347Q525 341 551.5 323.5Q578 306 596.5 275.0Q615 244 615 194V184Q615 126 588.0 85.0Q561 44 513.5 22.0Q466 0 404 0ZM250 98H391Q445 98 476.0 124.0Q507 150 507 196V205Q507 251 476.5 277.0Q446 303 391 303H250ZM250 402H391Q442 402 473.0 427.5Q504 453 504 497V507Q504 551 473.5 576.5Q443 602 391 602H250Z"/>
<path transform="translate(683.00,0)" d="M76 0V493H179V0ZM128 560Q98 560 77.5 579.5Q57 599 57 630Q57 661 77.5 680.5Q98 700 128 700Q159 700 179.0 680.5Q199 661 199 630Q199 599 179.0 579.5Q159 560 128 560Z"/>
<path transform="translate(959.00,0)" d="M261 0Q216 0 189.5 27.0Q163 54 163 99V406H27V493H163V656H266V493H413V406H266V117Q266 87 294 87H397V0Z"/>
<path transform="translate(1437.00,0)" d="M261 0Q216 0 189.5 27.0Q163 54 163 99V406H27V493H163V656H266V493H413V406H266V117Q266 87 294 87H397V0Z"/>
<path transform="translate(1915.00,0)" d="M302 -14Q227 -14 171.0 17.5Q115 49 83.5 106.5Q52 164 52 240V252Q52 329 83.0 386.5Q114 444 169.5 475.5Q225 507 298 507Q369 507 422.5 475.5Q476 444 506.0 388.0Q536 332 536 257V218H157Q159 153 200.5 114.5Q242 76 304 76Q362 76 391.5 102.0Q421 128 437 162L522 118Q508 90 481.5 59.0Q455 28 412.0 7.0Q369 -14 302 -14ZM158 297H431Q427 353 391.0 384.5Q355 416 297 416Q239 416 202.5 384.5Q166 353 158 297Z"/>
<path transform="translate(2519.00,0)" d="M76 0V493H177V419H193Q207 449 243.0 475.0Q279 501 350 501Q406 501 449.5 476.0Q493 451 518.0 405.5Q543 360 543 296V0H440V288Q440 352 408.0 382.5Q376 413 320 413Q256 413 217.5 371.0Q179 329 179 249V0Z"/>
<path transform="translate(3154.00,0)" d="M278 -14Q184 -14 122.0 28.0Q60 70 46 155L142 178Q150 137 169.0 113.0Q188 89 216.5 79.0Q245 69 278 69Q327 69 353.5 88.0Q380 107 380 137Q380 167 355.0 181.0Q330 195 281 204L247 210Q197 219 156.0 236.0Q115 253 91.0 283.0Q67 313 67 360Q67 430 119.0 468.5Q171 507 257 507Q340 507 393.5 469.5Q447 432 463 368L367 341Q358 386 329.0 404.5Q300 423 257 423Q215 423 191.0 407.5Q167 392 167 364Q167 334 190.5 320.0Q214 306 254 299L289 293Q342 284 386.0 268.0Q430 252 455.5 222.0Q481 192 481 142Q481 68 426.0 27.0Q371 -14 278 -14Z"/>
<path transform="translate(3699.00,0)" d="M307 -14Q233 -14 175.5 16.5Q118 47 85.0 104.0Q52 161 52 239V254Q52 332 85.0 388.5Q118 445 175.5 476.0Q233 507 307 507Q381 507 439.0 476.0Q497 445 530.0 388.5Q563 332 563 254V239Q563 161 530.0 104.0Q497 47 439.0 16.5Q381 -14 307 -14ZM307 78Q375 78 417.5 121.5Q460 165 460 242V251Q460 328 418.0 371.5Q376 415 307 415Q240 415 197.5 371.5Q155 328 155 251V242Q155 165 197.5 121.5Q240 78 307 78Z"/>
<path transform="translate(4334.00,0)" d="M76 0V493H177V435H193Q205 466 231.5 480.5Q258 495 297 495H356V402H293Q243 402 211.0 374.5Q179 347 179 290V0Z"/>
<path transform="translate(4741.00,0)" d=""/>
<path transform="translate(5016.00,0)" d="M278 -14Q184 -14 122.0 28.0Q60 70 46 155L142 178Q150 137 169.0 113.0Q188 89 216.5 79.0Q245 69 278 69Q327 69 353.5 88.0Q380 107 380 137Q380 167 355.0 181.0Q330 195 281 204L247 210Q197 219 156.0 236.0Q115 253 91.0 283.0Q67 313 67 360Q67 430 119.0 468.5Q171 507 257 507Q340 507 393.5 469.5Q447 432 463 368L367 341Q358 386 329.0 404.5Q300 423 257 423Q215 423 191.0 407.5Q167 392 167 364Q167 334 190.5 320.0Q214 306 254 299L289 293Q342 284 386.0 268.0Q430 252 455.5 222.0Q481 192 481 142Q481 68 426.0 27.0Q371 -14 278 -14Z"/>
<path transform="translate(5561.00,0)" d="M265 -9Q209 -9 165.0 16.0Q121 41 96.0 87.0Q71 133 71 197V493H174V204Q174 140 206.0 109.5Q238 79 295 79Q358 79 396.5 121.5Q435 164 435 244V493H538V0H437V74H421Q407 44 371.0 17.5Q335 -9 265 -9Z"/>
<path transform="translate(6195.00,0)" d="M361 -14Q289 -14 250.5 12.0Q212 38 193 70H177V0H76V700H179V426H195Q207 446 227.0 464.5Q247 483 280.0 495.0Q313 507 361 507Q423 507 475.0 477.0Q527 447 558.0 390.0Q589 333 589 254V239Q589 159 557.5 102.5Q526 46 474.5 16.0Q423 -14 361 -14ZM331 76Q398 76 441.5 119.0Q485 162 485 242V251Q485 330 442.0 373.0Q399 416 331 416Q265 416 221.5 373.0Q178 330 178 251V242Q178 162 221.5 119.0Q265 76 331 76Z"/>
<path transform="translate(6856.00,0)" d="M76 0V493H177V419H193Q207 449 243.0 475.0Q279 501 350 501Q406 501 449.5 476.0Q493 451 518.0 405.5Q543 360 543 296V0H440V288Q440 352 408.0 382.5Q376 413 320 413Q256 413 217.5 371.0Q179 329 179 249V0Z"/>
<path transform="translate(7491.00,0)" d="M302 -14Q227 -14 171.0 17.5Q115 49 83.5 106.5Q52 164 52 240V252Q52 329 83.0 386.5Q114 444 169.5 475.5Q225 507 298 507Q369 507 422.5 475.5Q476 444 506.0 388.0Q536 332 536 257V218H157Q159 153 200.5 114.5Q242 76 304 76Q362 76 391.5 102.0Q421 128 437 162L522 118Q508 90 481.5 59.0Q455 28 412.0 7.0Q369 -14 302 -14ZM158 297H431Q427 353 391.0 384.5Q355 416 297 416Q239 416 202.5 384.5Q166 353 158 297Z"/>
<path transform="translate(8095.00,0)" d="M261 0Q216 0 189.5 27.0Q163 54 163 99V406H27V493H163V656H266V493H413V406H266V117Q266 87 294 87H397V0Z"/>
<path transform="translate(8573.00,0)" d=""/>
<path transform="translate(8848.00,0)" d="M307 -14Q233 -14 175.5 16.5Q118 47 85.0 104.0Q52 161 52 239V254Q52 332 85.0 388.5Q118 445 175.5 476.0Q233 507 307 507Q381 507 439.0 476.0Q497 445 530.0 388.5Q563 332 563 254V239Q563 161 530.0 104.0Q497 47 439.0 16.5Q381 -14 307 -14ZM307 78Q375 78 417.5 121.5Q460 165 460 242V251Q460 328 418.0 371.5Q376 415 307 415Q240 415 197.5 371.5Q155 328 155 251V242Q155 165 197.5 121.5Q240 78 307 78Z"/>
<path transform="translate(9483.00,0)" d="M76 -200V493H177V422H193Q212 455 250.5 481.0Q289 507 361 507Q423 507 474.5 477.0Q526 447 557.5 390.5Q589 334 589 254V239Q589 159 558.0 102.5Q527 46 475.0 16.0Q423 -14 361 -14Q313 -14 280.0 -2.0Q247 10 227.0 28.5Q207 47 195 67H179V-200ZM331 76Q399 76 442.0 119.0Q485 162 485 242V251Q485 330 441.5 373.0Q398 416 331 416Q265 416 221.5 373.0Q178 330 178 251V242Q178 162 221.5 119.0Q265 76 331 76Z"/>
<path transform="translate(10144.00,0)" d="M302 -14Q227 -14 171.0 17.5Q115 49 83.5 106.5Q52 164 52 240V252Q52 329 83.0 386.5Q114 444 169.5 475.5Q225 507 298 507Q369 507 422.5 475.5Q476 444 506.0 388.0Q536 332 536 257V218H157Q159 153 200.5 114.5Q242 76 304 76Q362 76 391.5 102.0Q421 128 437 162L522 118Q508 90 481.5 59.0Q455 28 412.0 7.0Q369 -14 302 -14ZM158 297H431Q427 353 391.0 384.5Q355 416 297 416Q239 416 202.5 384.5Q166 353 158 297Z"/>
<path transform="translate(10748.00,0)" d="M76 0V493H177V435H193Q205 466 231.5 480.5Q258 495 297 495H356V402H293Q243 402 211.0 374.5Q179 347 179 290V0Z"/>
<path transform="translate(11155.00,0)" d="M229 -14Q176 -14 134.5 4.0Q93 22 68.5 57.0Q44 92 44 142Q44 193 68.5 226.5Q93 260 135.5 277.0Q178 294 232 294H382V326Q382 369 356.0 395.0Q330 421 276 421Q223 421 195.0 396.0Q167 371 158 331L62 362Q74 402 100.5 434.5Q127 467 171.0 487.0Q215 507 277 507Q373 507 428.0 458.0Q483 409 483 319V116Q483 86 511 86H553V0H476Q441 0 419.0 18.0Q397 36 397 67V70H382Q374 55 358.0 35.0Q342 15 311.0 0.5Q280 -14 229 -14ZM244 71Q306 71 344.0 106.5Q382 142 382 204V214H238Q197 214 172.0 196.5Q147 179 147 145Q147 111 173.0 91.0Q199 71 244 71Z"/>
<path transform="translate(11752.00,0)" d="M261 0Q216 0 189.5 27.0Q163 54 163 99V406H27V493H163V656H266V493H413V406H266V117Q266 87 294 87H397V0Z"/>
<path transform="translate(12230.00,0)" d="M76 0V493H179V0ZM128 560Q98 560 77.5 579.5Q57 599 57 630Q57 661 77.5 680.5Q98 700 128 700Q159 700 179.0 680.5Q199 661 199 630Q199 599 179.0 579.5Q159 560 128 560Z"/>
<path transform="translate(12506.00,0)" d="M307 -14Q233 -14 175.5 16.5Q118 47 85.0 104.0Q52 161 52 239V254Q52 332 85.0 388.5Q118 445 175.5 476.0Q233 507 307 507Q381 507 439.0 476.0Q497 445 530.0 388.5Q563 332 563 254V239Q563 161 530.0 104.0Q497 47 439.0 16.5Q381 -14 307 -14ZM307 78Q375 78 417.5 121.5Q460 165 460 242V251Q460 328 418.0 371.5Q376 415 307 415Q240 415 197.5 371.5Q155 328 155 251V242Q155 165 197.5 121.5Q240 78 307 78Z"/>
<path transform="translate(13141.00,0)" d="M76 0V493H177V419H193Q207 449 243.0 475.0Q279 501 350 501Q406 501 449.5 476.0Q493 451 518.0 405.5Q543 360 543 296V0H440V288Q440 352 408.0 382.5Q376 413 320 413Q256 413 217.5 371.0Q179 329 179 249V0Z"/>
<path transform="translate(13776.00,0)" d="M229 -14Q176 -14 134.5 4.0Q93 22 68.5 57.0Q44 92 44 142Q44 193 68.5 226.5Q93 260 135.5 277.0Q178 294 232 294H382V326Q382 369 356.0 395.0Q330 421 276 421Q223 421 195.0 396.0Q167 371 158 331L62 362Q74 402 100.5 434.5Q127 467 171.0 487.0Q215 507 277 507Q373 507 428.0 458.0Q483 409 483 319V116Q483 86 511 86H553V0H476Q441 0 419.0 18.0Q397 36 397 67V70H382Q374 55 358.0 35.0Q342 15 311.0 0.5Q280 -14 229 -14ZM244 71Q306 71 344.0 106.5Q382 142 382 204V214H238Q197 214 172.0 196.5Q147 179 147 145Q147 111 173.0 91.0Q199 71 244 71Z"/>
<path transform="translate(14373.00,0)" d="M76 0V700H179V0Z"/>
<path transform="translate(14649.00,0)" d=""/>
<path transform="translate(14924.00,0)" d="M76 0V700H179V0Z"/>
<path transform="translate(15200.00,0)" d="M229 -14Q176 -14 134.5 4.0Q93 22 68.5 57.0Q44 92 44 142Q44 193 68.5 226.5Q93 260 135.5 277.0Q178 294 232 294H382V326Q382 369 356.0 395.0Q330 421 276 421Q223 421 195.0 396.0Q167 371 158 331L62 362Q74 402 100.5 434.5Q127 467 171.0 487.0Q215 507 277 507Q373 507 428.0 458.0Q483 409 483 319V116Q483 86 511 86H553V0H476Q441 0 419.0 18.0Q397 36 397 67V70H382Q374 55 358.0 35.0Q342 15 311.0 0.5Q280 -14 229 -14ZM244 71Q306 71 344.0 106.5Q382 142 382 204V214H238Q197 214 172.0 196.5Q147 179 147 145Q147 111 173.0 91.0Q199 71 244 71Z"/>
<path transform="translate(15797.00,0)" d="M133 -200V-110H408Q436 -110 436 -80V72H420Q411 52 392.5 33.5Q374 15 343.0 3.0Q312 -9 265 -9Q209 -9 165.0 16.0Q121 41 96.0 87.0Q71 133 71 196V493H174V204Q174 140 206.0 109.5Q238 79 295 79Q358 79 396.5 121.0Q435 163 435 243V493H538V-101Q538 -146 511.5 -173.0Q485 -200 439 -200Z"/>
<path transform="translate(16431.00,0)" d="M302 -14Q227 -14 171.0 17.5Q115 49 83.5 106.5Q52 164 52 240V252Q52 329 83.0 386.5Q114 444 169.5 475.5Q225 507 298 507Q369 507 422.5 475.5Q476 444 506.0 388.0Q536 332 536 257V218H157Q159 153 200.5 114.5Q242 76 304 76Q362 76 391.5 102.0Q421 128 437 162L522 118Q508 90 481.5 59.0Q455 28 412.0 7.0Q369 -14 302 -14ZM158 297H431Q427 353 391.0 384.5Q355 416 297 416Q239 416 202.5 384.5Q166 353 158 297Z"/>
<path transform="translate(17035.00,0)" d="M76 0V493H177V435H193Q205 466 231.5 480.5Q258 495 297 495H356V402H293Q243 402 211.0 374.5Q179 347 179 290V0Z"/>
<path transform="translate(17442.00,0)" d=""/>
<path transform="translate(17717.00,0)" d="M101 205Q66 205 42.5 228.0Q19 251 19 287Q19 323 42.5 345.5Q66 368 101 368Q136 368 159.5 345.0Q183 322 183 287Q183 251 159.5 228.0Q136 205 101 205Z"/>
<path transform="translate(17940.00,0)" d=""/>
<path transform="translate(18215.00,0)" d="M280 -14Q219 -14 167.0 16.0Q115 46 83.5 102.5Q52 159 52 239V254Q52 333 83.0 390.0Q114 447 166.0 477.0Q218 507 280 507Q328 507 360.5 495.0Q393 483 414.0 464.5Q435 446 446 426H462V700H565V0H464V70H448Q429 38 390.5 12.0Q352 -14 280 -14ZM309 76Q376 76 419.5 119.0Q463 162 463 242V251Q463 330 420.0 373.0Q377 416 309 416Q243 416 199.5 373.0Q156 330 156 251V242Q156 162 199.5 119.0Q243 76 309 76Z"/>
<path transform="translate(18876.00,0)" d="M229 -14Q176 -14 134.5 4.0Q93 22 68.5 57.0Q44 92 44 142Q44 193 68.5 226.5Q93 260 135.5 277.0Q178 294 232 294H382V326Q382 369 356.0 395.0Q330 421 276 421Q223 421 195.0 396.0Q167 371 158 331L62 362Q74 402 100.5 434.5Q127 467 171.0 487.0Q215 507 277 507Q373 507 428.0 458.0Q483 409 483 319V116Q483 86 511 86H553V0H476Q441 0 419.0 18.0Q397 36 397 67V70H382Q374 55 358.0 35.0Q342 15 311.0 0.5Q280 -14 229 -14ZM244 71Q306 71 344.0 106.5Q382 142 382 204V214H238Q197 214 172.0 196.5Q147 179 147 145Q147 111 173.0 91.0Q199 71 244 71Z"/>
<path transform="translate(19473.00,0)" d="M261 0Q216 0 189.5 27.0Q163 54 163 99V406H27V493H163V656H266V493H413V406H266V117Q266 87 294 87H397V0Z"/>
<path transform="translate(19951.00,0)" d="M229 -14Q176 -14 134.5 4.0Q93 22 68.5 57.0Q44 92 44 142Q44 193 68.5 226.5Q93 260 135.5 277.0Q178 294 232 294H382V326Q382 369 356.0 395.0Q330 421 276 421Q223 421 195.0 396.0Q167 371 158 331L62 362Q74 402 100.5 434.5Q127 467 171.0 487.0Q215 507 277 507Q373 507 428.0 458.0Q483 409 483 319V116Q483 86 511 86H553V0H476Q441 0 419.0 18.0Q397 36 397 67V70H382Q374 55 358.0 35.0Q342 15 311.0 0.5Q280 -14 229 -14ZM244 71Q306 71 344.0 106.5Q382 142 382 204V214H238Q197 214 172.0 196.5Q147 179 147 145Q147 111 173.0 91.0Q199 71 244 71Z"/>
<path transform="translate(20548.00,0)" d=""/>
<path transform="translate(20823.00,0)" d="M76 0V700H179V423H195Q205 442 223.5 460.0Q242 478 272.5 489.5Q303 501 350 501Q406 501 449.5 476.0Q493 451 518.0 405.5Q543 360 543 296V0H440V288Q440 352 408.0 382.5Q376 413 320 413Q256 413 217.5 371.0Q179 329 179 249V0Z"/>
<path transform="translate(21458.00,0)" d="M265 -9Q209 -9 165.0 16.0Q121 41 96.0 87.0Q71 133 71 197V493H174V204Q174 140 206.0 109.5Q238 79 295 79Q358 79 396.5 121.5Q435 164 435 244V493H538V0H437V74H421Q407 44 371.0 17.5Q335 -9 265 -9Z"/>
<path transform="translate(22092.00,0)" d="M361 -14Q289 -14 250.5 12.0Q212 38 193 70H177V0H76V700H179V426H195Q207 446 227.0 464.5Q247 483 280.0 495.0Q313 507 361 507Q423 507 475.0 477.0Q527 447 558.0 390.0Q589 333 589 254V239Q589 159 557.5 102.5Q526 46 474.5 16.0Q423 -14 361 -14ZM331 76Q398 76 441.5 119.0Q485 162 485 242V251Q485 330 442.0 373.0Q399 416 331 416Q265 416 221.5 373.0Q178 330 178 251V242Q178 162 221.5 119.0Q265 76 331 76Z"/>
<path transform="translate(22753.00,0)" d=""/>
<path transform="translate(23028.00,0)" d="M101 205Q66 205 42.5 228.0Q19 251 19 287Q19 323 42.5 345.5Q66 368 101 368Q136 368 159.5 345.0Q183 322 183 287Q183 251 159.5 228.0Q136 205 101 205Z"/>
<path transform="translate(23251.00,0)" d=""/>
<path transform="translate(23526.00,0)" d="M21 0 221 700H411L610 0H499L453 165H179L133 0ZM206 265H426L324 633H308Z"/>
<path transform="translate(24178.00,0)" d="M73 0V700H351Q415 700 465.5 674.5Q516 649 544.5 602.5Q573 556 573 491V478Q573 413 543.5 366.0Q514 319 464.0 294.0Q414 269 351 269H181V0ZM181 367H340Q397 367 431.0 397.0Q465 427 465 479V489Q465 542 431.0 572.0Q397 602 340 602H181Z"/>
<path transform="translate(24801.00,0)" d="M73 0V700H181V0Z"/>
</g>
</svg>